<?xml version="1.0" encoding="UTF-8"?><svg id="a" xmlns="http://www.w3.org/2000/svg" viewBox="0 0 362 34"><path d="m108.92,27.76c.1,1.08-.22,2.14-.92,2.98-.69.84-1.67,1.35-2.75,1.46-.25.02-.52.02-.79,0h-.75v1.23h.86c.14.01.29.02.43.02,1.24,0,2.44-.44,3.39-1.25,1.07-.91,1.72-2.18,1.83-3.58.02-.27.02-.54,0-.8V8.09h-1.3v19.67Z"/><rect x="85.61" y="16.55" width="17.11" height="1.27"/><rect x="108.67" y="2.04" width="1.82" height="2.11"/><path d="m130.99,18.84c0,4.38-2.54,7.11-6.62,7.11s-6.62-2.72-6.62-7.11v-10.76h-1.3v10.88c0,2.46.74,4.54,2.14,6.01,1.41,1.47,3.41,2.25,5.78,2.25,4.81,0,7.93-3.24,7.93-8.25v-10.88h-1.3v10.76Z"/><polygon points="182.03 5.99 183.42 5.99 187.78 .56 186.44 .56 182.73 4.98 179.08 .6 179.05 .56 177.71 .56 182 5.95 182.03 5.99"/><polygon points="161.79 .56 160.36 .56 157.57 5.99 158.78 5.99 161.79 .56"/><path d="m139.73,11.97l-.16-3.79v-.1h-1.07v18.78h1.3v-10.56c0-4.13,2.62-7.01,6.38-7.01h1.77v-1.26h-1.69c-2.74-.09-5.32,1.48-6.52,3.94Z"/><path d="m10.32,7.72h-.03C5.12,7.72.92,11.91.9,17.08c0,.12,0,.25,0,.37-.1,2.51.78,4.91,2.48,6.75,1.7,1.85,4.02,2.92,6.53,3.02.17,0,.34,0,.5,0,3.76,0,7.1-2.24,8.54-5.72l.06-.14h-1.38l-.03.06c-1.32,2.75-4.13,4.52-7.18,4.52h-.17c-2.13,0-4.14-.82-5.66-2.32-1.53-1.51-2.39-3.53-2.4-5.69,0,0,0-.01,0-.02h17.33v-.09c.01-.15.02-.32.02-.47,0-5.48-3.97-9.62-9.23-9.62ZM2.21,16.67c.18-4.26,3.75-7.69,8.02-7.69.03,0,.06,0,.08,0h0s.05,0,.08,0c4.27,0,7.77,3.42,7.87,7.69H2.21Z"/><path d="m54.18,7.72h-.04c-2.49,0-4.84.97-6.61,2.72-1.78,1.77-2.77,4.12-2.78,6.63,0,.13,0,.25,0,.37-.21,5.18,3.84,9.56,9.01,9.77.17,0,.33,0,.5,0,3.76,0,7.11-2.24,8.54-5.72l.06-.14h-1.38l-.03.06c-1.32,2.75-4.13,4.52-7.18,4.52h-.11c-2.15.03-4.19-.81-5.72-2.32-1.53-1.51-2.39-3.53-2.4-5.69,0,0,0-.01,0-.02h17.33v-.09c.01-.12.02-.25.02-.37v-.1c0-5.48-3.96-9.62-9.23-9.62Zm-.08,1.26s.05,0,.08,0h0s.05,0,.07,0c4.27,0,7.77,3.42,7.87,7.69h-16.05c.18-4.26,3.75-7.69,8.02-7.69Zm.08-.1h0s0,0,0,0Z"/><polygon points="74.32 24.95 66.67 8.14 66.64 8.09 65.26 8.09 73.77 26.8 73.79 26.86 74.85 26.86 83.14 8.23 83.21 8.09 81.85 8.08 74.32 24.95"/><path d="m33.48,7.75l.12-.03h-.82c-3.02,0-5.8,1.7-7.2,4.36l-.18-3.99h-1.06v18.78h1.3v-10.92c.05-3.84,3.1-6.91,6.93-6.99,3.94,0,6.29,2.62,6.29,7v10.9h1.3v-11.09c0-4.63-2.6-7.7-6.68-8.02Z"/><path d="m296.74,21.08v-11.78h6.74v-1.17h-6.74V2.62h-1.3v5.5h-4.28v1.17h4.28v11.83c0,3.55,2.17,5.75,5.66,5.75h2.53v-1.25h-2.44c-2.83,0-4.46-1.66-4.46-4.54Z"/><polygon points="342.46 8.09 340.82 8.09 333.56 16.45 330.22 16.45 330.22 1.52 328.92 1.52 328.92 26.86 330.22 26.86 330.22 17.69 333.55 17.69 341.45 26.83 341.48 26.86 343.14 26.86 334.67 17.07 342.46 8.09"/><path d="m314.81,7.72h-.03c-5.16,0-9.37,4.19-9.39,9.35,0,.12,0,.25,0,.37-.21,5.18,3.84,9.56,9.01,9.77.17,0,.33,0,.5,0,3.76,0,7.1-2.24,8.54-5.72l.06-.14h-1.38l-.03.06c-1.32,2.75-4.13,4.52-7.18,4.52-.05,0-.11,0-.17,0-4.42,0-8.03-3.58-8.07-8.01v-.02h17.33v-.09c.02-.12.02-.25.03-.37v-.1c0-5.48-3.97-9.62-9.23-9.62Zm-8.1,8.94c.18-4.26,3.75-7.69,8.02-7.69.03,0,.05,0,.08,0h0s.05,0,.08,0c4.27,0,7.77,3.42,7.87,7.69h-16.05Z"/><path d="m348.95,21.08v-11.78h6.74v-1.17h-6.74V2.62h-1.3v5.5h-4.28v1.17h4.28v11.83c0,3.55,2.17,5.75,5.66,5.75h2.53v-1.25h-2.44c-2.83,0-4.46-1.66-4.46-4.54Z"/><rect x="359.29" y="2.04" width="1.82" height="2.12"/><rect x="286.02" y="2.04" width="1.82" height="2.12"/><rect x="359.55" y="8.09" width="1.3" height="18.77"/><path d="m272.74,7.73h-.07c-2.97,0-5.73,1.66-7.14,4.25V1.52h-1.3v25.34h1.3v-10.92c.05-3.84,3.1-6.91,6.93-6.99,3.94,0,6.29,2.62,6.29,7v10.9h1.3v-11.09c0-2.42-.68-4.45-1.99-5.87-1.29-1.41-3.13-2.16-5.32-2.18Z"/><path d="m222.9,12.64c-1.59-3.02-4.73-4.92-8.15-4.92-.08,0-.16,0-.25,0-.04,0-.08,0-.13,0-5.16,0-9.39,4.16-9.45,9.33,0,.14,0,.28,0,.41-.08,2.53.83,4.93,2.57,6.77,1.73,1.84,4.08,2.9,6.61,2.97.13,0,.27,0,.4,0,.08,0,.16,0,.24,0,3.42,0,6.56-1.9,8.15-4.91l.11,4.45v.1h1.16V8.09h-1.13l-.13,4.55Zm-.04,4.3c0,.18,0,.35,0,.54.09,2.17-.66,4.24-2.12,5.84s-3.46,2.53-5.63,2.63c-.18,0-.35,0-.53,0h-.12c-4.47,0-8.14-3.61-8.21-8.09,0-.13,0-.25,0-.38-.14-4.53,3.44-8.33,7.97-8.47.12,0,.23,0,.35,0,2.16-.05,4.22.75,5.79,2.25,1.57,1.5,2.45,3.52,2.5,5.69Z"/><path d="m183.3,7.73c-3.02,0-5.8,1.7-7.2,4.35l-.18-3.99h-1.06v18.77h1.3v-10.92c.05-3.84,3.1-6.91,6.93-6.99,3.94,0,6.29,2.62,6.29,7v10.9h1.3v-11.09c0-2.39-.68-4.4-1.98-5.84-1.31-1.45-3.18-2.21-5.4-2.21Z"/><rect x="286.28" y="8.09" width="1.3" height="18.77"/><path d="m238.25,8.03c-2.67,0-5.13,1.55-6.3,3.94l-.17-3.88h-1.07v18.78h1.3v-10.56c0-4.13,2.62-7.01,6.38-7.01h1.77v-1.26h-1.69c-.08,0-.15,0-.22,0Z"/><path d="m258.39,21.18c-1.27,2.91-4.12,4.77-7.29,4.77-.09,0-.18,0-.27,0-2.17,0-4.21-.83-5.77-2.36-1.57-1.54-2.45-3.6-2.47-5.8,0-.1,0-.21,0-.32-.15-4.52,3.41-8.32,7.92-8.47.13,0,.27,0,.4,0,.08,0,.16,0,.23,0,3.13,0,5.94,1.83,7.2,4.72l.03.06h1.33l-.05-.13c-1.31-3.57-4.69-5.92-8.46-5.92-.09,0-.18,0-.27,0-.06,0-.12,0-.18,0-2.46,0-4.79.94-6.56,2.65-1.82,1.75-2.85,4.11-2.9,6.64,0,.15,0,.31,0,.46-.06,2.54.87,4.95,2.62,6.79,1.75,1.84,4.11,2.89,6.65,2.95.12,0,.24,0,.36,0,.07,0,.13,0,.2,0,3.82,0,7.25-2.38,8.59-5.97l.05-.13h-1.34l-.03.06Z"/><path d="m167.03,12.64c-1.59-3.02-4.73-4.92-8.15-4.92-.08,0-.16,0-.24,0-.04,0-.09,0-.13,0-2.48,0-4.82.95-6.6,2.68-1.81,1.76-2.82,4.12-2.86,6.65,0,.14,0,.28,0,.41-.16,5.22,3.96,9.59,9.17,9.75.13,0,.27,0,.4,0,.08,0,.16,0,.25,0,3.42,0,6.56-1.9,8.15-4.91l.11,4.54h1.16V8.09h-1.13l-.14,4.55Zm-.04,4.3c0,.18,0,.36,0,.54.2,4.47-3.28,8.27-7.75,8.46-.18,0-.35,0-.53,0h-.12c-4.47,0-8.14-3.61-8.21-8.09,0-.13,0-.25,0-.38-.14-4.53,3.44-8.33,7.97-8.47.11,0,.23,0,.35,0,.06,0,.12,0,.18,0,2.1,0,4.09.8,5.61,2.25,1.57,1.5,2.45,3.52,2.5,5.69Z"/></svg>