<svg xmlns="http://www.w3.org/2000/svg" xmlns:xlink="http://www.w3.org/1999/xlink" width="42" height="42" viewBox="0 0 42 42"><defs><clipPath id="b"><rect width="42" height="42"/></clipPath></defs><g id="a" clip-path="url(#b)"><path d="M28.908,44.446a.5.5,0,0,1-.5-.5V31.309a.5.5,0,0,1,.5-.5h3.784l.649-4.227H28.908a.5.5,0,0,1-.5-.5V22.688a3.112,3.112,0,0,1,3.446-3.324h1.781V15.846a26.7,26.7,0,0,0-3.548-.282c-3.964,0-6.33,2.443-6.33,6.535v3.984a.5.5,0,0,1-.5.5H19.164v4.227h4.094a.5.5,0,0,1,.5.5V43.946a.5.5,0,0,1-.578.494,18.577,18.577,0,1,1,5.806,0A.5.5,0,0,1,28.908,44.446Zm.5-12.636V43.351a17.582,17.582,0,1,0-6.651,0V31.809H18.664a.5.5,0,0,1-.5-.5V26.082a.5.5,0,0,1,.5-.5h4.094V22.1a7.665,7.665,0,0,1,2.012-5.57,7.308,7.308,0,0,1,5.318-1.965,28.036,28.036,0,0,1,4.132.36.5.5,0,0,1,.416.493v4.448a.5.5,0,0,1-.5.5H31.854c-1.623,0-2.446.782-2.446,2.324v2.894h4.515a.5.5,0,0,1,.494.576l-.8,5.227a.5.5,0,0,1-.494.424Z" transform="translate(-5.082 -4.973)" fill="rgba(255,255,255,0.5)"/></g></svg>