<svg xmlns="http://www.w3.org/2000/svg" xmlns:xlink="http://www.w3.org/1999/xlink" width="42" height="42" viewBox="0 0 42 42"><defs><clipPath id="b"><rect width="42" height="42"/></clipPath></defs><g id="a" clip-path="url(#b)"><path d="M18.639,31.325c3.341,0,6.31.051,7.748.132,3.638.182,6.157,1.16,8.166,3.168s3,4.531,3.169,8.17c.176,3.107.176,12.37,0,15.482-.182,3.638-1.16,6.157-3.168,8.166s-4.531,3-8.17,3.169c-1.433.081-4.4.132-7.743.132s-6.31-.051-7.748-.132c-3.63-.182-6.149-1.159-8.165-3.168s-3-4.532-3.169-8.171c-.176-3.109-.176-12.377,0-15.491a11.737,11.737,0,0,1,3.169-8.166c2.02-2.013,4.54-2.987,8.17-3.159C12.329,31.376,15.3,31.325,18.639,31.325Zm0,37.419c3.324,0,6.271-.05,7.691-.131,3.376-.16,5.692-1.047,7.515-2.876s2.708-4.138,2.878-7.513c.176-3.092.176-12.288,0-15.377-.16-3.376-1.047-5.692-2.876-7.515s-4.138-2.708-7.513-2.877c-1.424-.081-4.371-.131-7.694-.131s-6.271.05-7.691.131c-3.368.16-5.685,1.045-7.516,2.869S.728,39.408.556,42.836C.38,45.93.38,55.131.556,58.222.716,61.6,1.6,63.914,3.432,65.736c1.853,1.846,4.1,2.706,7.513,2.877C12.369,68.694,15.316,68.744,18.639,68.744Zm-3.3-34.071c.7,0,1.382.007,1.98.013.485,0,.943.01,1.328.01s.826,0,1.3-.009c.584-.006,1.246-.012,1.934-.012,2.763,0,6.167.092,7.98.807a6.817,6.817,0,0,1,3.838,3.836c.875,2.206.828,6.829.8,9.888,0,.485-.01.943-.01,1.328s0,.843.01,1.328c.031,3.062.078,7.69-.8,9.887a6.816,6.816,0,0,1-3.836,3.836c-1.81.718-5.177.81-7.908.81-.7,0-1.382-.007-1.98-.013-.485,0-.943-.01-1.328-.01s-.826,0-1.3.009c-.584.006-1.246.012-1.934.012-2.763,0-6.167-.092-7.98-.807a6.817,6.817,0,0,1-3.838-3.836c-.875-2.206-.828-6.829-.8-9.888,0-.485.01-.943.01-1.328s0-.826-.009-1.3c-.029-3.07-.074-7.71.8-9.913a6.817,6.817,0,0,1,3.836-3.838C9.237,34.766,12.6,34.674,15.335,34.674ZM18.643,35.7c-.39,0-.85,0-1.338-.01-.6-.006-1.271-.013-1.97-.013-2.436,0-5.868.077-7.538.739A5.824,5.824,0,0,0,4.521,39.69c-.8,2.02-.752,6.724-.725,9.535,0,.477.009.928.009,1.31s0,.85-.01,1.338c-.028,2.8-.076,7.486.726,9.508A5.824,5.824,0,0,0,7.8,64.657c1.674.66,5.146.737,7.611.737.683,0,1.342-.006,1.924-.012.477,0,.928-.009,1.31-.009s.85,0,1.338.01c.6.006,1.271.013,1.97.013,2.436,0,5.868-.077,7.538-.739a5.824,5.824,0,0,0,3.277-3.277c.8-2.014.754-6.7.726-9.507,0-.488-.01-.948-.01-1.338s0-.85.01-1.338c.028-2.8.076-7.486-.726-9.508a5.824,5.824,0,0,0-3.277-3.277c-1.674-.66-5.146-.737-7.611-.737-.683,0-1.342.006-1.924.012C19.476,35.692,19.026,35.7,18.643,35.7Zm9.986,2.114a2.738,2.738,0,1,1-2.738,2.738A2.741,2.741,0,0,1,28.63,37.811Zm0,4.475a1.738,1.738,0,1,0-1.738-1.738A1.74,1.74,0,0,0,28.63,42.286Zm-9.986-1.845A10.079,10.079,0,1,1,11.5,43.393,10.031,10.031,0,0,1,18.643,40.441Zm0,19.188a9.094,9.094,0,1,0-9.094-9.094A9.1,9.1,0,0,0,18.643,59.629Zm0-15.831a6.737,6.737,0,1,1-6.737,6.737A6.745,6.745,0,0,1,18.643,43.8Zm0,12.475a5.737,5.737,0,1,0-5.737-5.737A5.744,5.744,0,0,0,18.643,56.272Z" transform="translate(2.361 -29.535)" fill="rgba(255,255,255,0.5)"/></g></svg>