<svg xmlns="http://www.w3.org/2000/svg" xmlns:xlink="http://www.w3.org/1999/xlink" width="363" height="35" viewBox="0 0 363 35"><defs><clipPath id="b"><rect width="363" height="35"/></clipPath></defs><g id="a" clip-path="url(#b)"><path d="M20.129-8.356c0-5.357-3.792-9.52-9.133-9.52A9.286,9.286,0,0,0,1.683-8.253,9.3,9.3,0,0,0,11,1.422a9.139,9.139,0,0,0,8.548-5.658h-1.17A8.059,8.059,0,0,1,11,.338a8.166,8.166,0,0,1-8.224-8.23H20.112C20.12-8.038,20.129-8.21,20.129-8.356ZM11-16.818a7.971,7.971,0,0,1,8.048,7.886H2.79A8.13,8.13,0,0,1,11-16.818Zm22.462-1.058a8.053,8.053,0,0,0-7.278,4.644l-.195-4.283h-.869V1.061h1.1V-9.757a7.178,7.178,0,0,1,7.034-7.086c3.982,0,6.389,2.674,6.389,7.1v10.8h1.1V-9.929C40.742-14.719,37.938-17.875,33.458-17.875Zm30.528,9.52c0-5.357-3.792-9.52-9.133-9.52A9.286,9.286,0,0,0,45.54-8.253a9.3,9.3,0,0,0,9.313,9.674A9.139,9.139,0,0,0,63.4-4.237h-1.17A8.059,8.059,0,0,1,54.854.338a8.166,8.166,0,0,1-8.224-8.23H63.969C63.978-8.038,63.986-8.21,63.986-8.356Zm-9.133-8.462A7.971,7.971,0,0,1,62.9-8.932H46.647a8.13,8.13,0,0,1,8.207-7.886Zm27.733-.7L75-.505,67.254-17.514H66.093L74.538,1.061h.929l8.264-18.575Zm3.8,9.537H103.3V-9.052H86.392Zm23.06-13.665h1.617V-23.56h-1.617ZM104.49,7.622h.765A5.148,5.148,0,0,0,110.8,2.11V-17.514h-1.1V2.05a4.17,4.17,0,0,1-4.558,4.541h-.654Zm20.553-6.2c4.8,0,7.826-3.19,7.826-8.152V-17.514h-1.1V-6.859c0,4.437-2.571,7.206-6.725,7.206s-6.725-2.76-6.725-7.206V-17.514h-1.1V-6.73C117.217-1.769,120.253,1.422,125.043,1.422Zm21.886-18.988a6.9,6.9,0,0,0-6.6,4.259l-.179-4.208h-.869V1.061h1.1V-9.4c0-4.111,2.6-7.112,6.475-7.112h1.668v-1.058ZM162.3-25.039h-1.2l-2.683,5.228h.98Zm5.65,7.525L167.8-12.66a9.115,9.115,0,0,0-8.482-5.215,9.358,9.358,0,0,0-9.477,9.649,9.364,9.364,0,0,0,9.477,9.649A9.118,9.118,0,0,0,167.8-3.788l.122,4.849h.963V-17.514ZM159.38.347a8.308,8.308,0,0,1-8.419-8.574A8.324,8.324,0,0,1,159.38-16.8a8.215,8.215,0,0,1,8.385,8.574A8.215,8.215,0,0,1,159.38.347ZM184.052-19.81l4.2-5.228h-1.084l-3.756,4.477-3.726-4.477H178.6l4.162,5.228Zm-.069,1.935a8.053,8.053,0,0,0-7.278,4.644l-.195-4.283h-.869V1.061h1.1V-9.757a7.178,7.178,0,0,1,7.034-7.086c3.982,0,6.389,2.674,6.389,7.1v10.8h1.1V-9.929C191.267-14.719,188.464-17.875,183.983-17.875Zm39.824.361-.143,4.855a9.115,9.115,0,0,0-8.482-5.215,9.358,9.358,0,0,0-9.477,9.649,9.364,9.364,0,0,0,9.477,9.649,9.118,9.118,0,0,0,8.477-5.211l.122,4.849h.963V-17.514ZM215.242.347a8.308,8.308,0,0,1-8.419-8.574,8.324,8.324,0,0,1,8.419-8.574,8.215,8.215,0,0,1,8.384,8.574A8.215,8.215,0,0,1,215.242.347Zm23.907-17.913a6.9,6.9,0,0,0-6.6,4.259l-.179-4.208H231.5V1.061h1.1V-9.4c0-4.111,2.6-7.112,6.475-7.112h1.668v-1.058ZM251.6,1.422a9.067,9.067,0,0,0,8.7-5.9h-1.135A8.054,8.054,0,0,1,251.6.347a8.339,8.339,0,0,1-8.419-8.574A8.3,8.3,0,0,1,251.6-16.8a7.958,7.958,0,0,1,7.525,4.773h1.118a8.92,8.92,0,0,0-8.642-5.848,9.367,9.367,0,0,0-9.537,9.649A9.413,9.413,0,0,0,251.6,1.422Zm21.748-19.3a8.055,8.055,0,0,0-7.241,4.564V-24.076h-1.1V1.061h1.1V-9.757a7.178,7.178,0,0,1,7.034-7.086c3.982,0,6.389,2.674,6.389,7.1v10.8h1.1V-9.929C280.633-14.8,277.829-17.875,273.349-17.875Zm13.45-3.767h1.617V-23.56H286.8Zm.258,22.7h1.1V-17.514h-1.1ZM301.874.02c-2.9,0-4.558-1.711-4.558-4.644V-16.508h6.742v-.972h-6.742v-5.5h-1.1v5.5h-4.283v.972h4.283V-4.581c0,3.517,2.107,5.65,5.564,5.65h2.434V.02Zm22.746-8.376c0-5.357-3.792-9.52-9.133-9.52a9.286,9.286,0,0,0-9.313,9.623,9.3,9.3,0,0,0,9.313,9.674,9.139,9.139,0,0,0,8.548-5.658h-1.17A8.059,8.059,0,0,1,315.487.338a8.166,8.166,0,0,1-8.223-8.23H324.6C324.611-8.038,324.619-8.21,324.619-8.356Zm-9.133-8.462a7.971,7.971,0,0,1,8.048,7.886H307.28a8.13,8.13,0,0,1,8.207-7.886ZM342.205,1.061h1.4L335.222-8.63l7.7-8.884h-1.376l-7.257,8.359h-3.492v-14.92h-1.1V1.061h1.1V-8.115h3.476ZM354.09.02c-2.9,0-4.558-1.711-4.558-4.644V-16.508h6.742v-.972h-6.742v-5.5h-1.1v5.5h-4.283v.972h4.283V-4.581c0,3.517,2.107,5.65,5.564,5.65h2.434V.02Zm5.977-21.662h1.617V-23.56h-1.617Zm.258,22.7h1.1V-17.514h-1.1Z" transform="translate(-0.683 26.039)"/></g></svg>